# xmcd
#
# Track frame offsets: 
#        150
#        12320
#        23600
#        35110
#        45712
#        55394
#        66524
#        78520
#        90122
#        99836
#        109650
#        121762
#        133676
#        148102
#        161290
#        173410
#        187350
#        204254
#        220668
#        239076
#        251882
#        270338
#        282324
#        293522
#        305056
#        314530
#        325680
#
# Disc length: 4444 seconds
#
# Revision: 0
# Processed by: cddbd v1.5.2PL0 Copyright (c) Steve Scherf et al.
# Submitted via: ExactAudioCopy v0.99pb5
#
DISCID=82115a1b
DTITLE=Swing Vault - Big 27
DYEAR=2013
DGENRE=Swing
TTITLE0=ROLY POLY
TTITLE1=OLD FASHION LOVE
TTITLE2=TIME CHANGES EVERYTHING
TTITLE3=WALKIN ON NEW GRASS
TTITLE4=PLAYED GAME TOO LONG
TTITLE5=HEAVEN HELL OR HOUSTON
TTITLE6=EARLY MORNING RAIN
TTITLE7=WEST TEXAS HIGHWAY
TTITLE8=ABILENE
TTITLE9=CLOSE UP THE HONKY TONKS
TTITLE10=FILIPINO BABY
TTITLE11=PASS THE BOOZE
TTITLE12=DRIVIN NAILS IN MY COFFIN
TTITLE13=NEVER GET OUT OF THIS WORLD ALIVE
TTITLE14=I'VE BEEN EVERYWHERE
TTITLE15=CHOO CHOO CHA BOOGIE
TTITLE16=JUMPIN AT THE WOODSIDE
TTITLE17=BLOOD SHOT EYES
TTITLE18=LET ME GO HOME WHISKEY
TTITLE19=NOBODY HERE BUT US CHICKENS
TTITLE20=ONE O CLOCK JUMP
TTITLE21=GREAT AFTERNOON
TTITLE22=I'M AN OLD MAN
TTITLE23=HONKY TONK NIGHT TIME MAN
TTITLE24=WONDER WHERE I'LL FIND YOU
TTITLE25=HERE IN FRISCO
TTITLE26=WALKING THE FLOOR OVER YOU
EXTD=
EXTT0=
EXTT1=
EXTT2=
EXTT3=
EXTT4=
EXTT5=
EXTT6=
EXTT7=
EXTT8=
EXTT9=
EXTT10=
EXTT11=
EXTT12=
EXTT13=
EXTT14=
EXTT15=
EXTT16=
EXTT17=
EXTT18=
EXTT19=
EXTT20=
EXTT21=
EXTT22=
EXTT23=
EXTT24=
EXTT25=
EXTT26=
PLAYORDER=
